<?xml version="1.0" standalone="no"?>
<!DOCTYPE svg PUBLIC "-//W3C//DTD SVG 20010904//EN"
 "http://www.w3.org/TR/2001/REC-SVG-20010904/DTD/svg10.dtd">
<svg version="1.0" xmlns="http://www.w3.org/2000/svg"
 width="320.000000pt" height="320.000000pt" viewBox="0 0 320.000000 320.000000"
 preserveAspectRatio="xMidYMid meet">
<metadata>
Created by potrace 1.11, written by Peter Selinger 2001-2013
</metadata>
<g transform="translate(0.000000,320.000000) scale(0.100000,-0.100000)"
fill="#000000" stroke="none">
<path d="M867 2904 c-32 -8 -67 -19 -79 -25 -11 -6 -43 -13 -72 -16 -216 -19
-384 -130 -497 -328 -97 -171 -172 -373 -204 -546 -14 -81 -16 -140 -12 -360
5 -283 8 -310 72 -504 42 -128 178 -395 276 -541 79 -118 194 -203 324 -239
33 -9 80 -23 105 -31 135 -46 173 -52 310 -49 74 2 149 6 165 9 17 2 64 7 105
11 41 3 95 8 120 10 25 3 104 10 175 15 72 6 150 13 175 15 61 6 153 14 220
19 30 3 87 8 125 12 39 3 86 7 105 9 223 19 312 28 348 36 136 30 269 145 345
301 62 126 106 249 133 369 2 10 6 29 9 41 3 13 8 41 11 63 3 22 8 54 10 70 3
17 6 98 8 180 4 134 -6 256 -30 365 -3 14 -7 41 -9 60 -11 102 -19 153 -36
235 -21 98 -60 227 -89 290 -10 22 -25 57 -34 79 -24 57 -99 167 -142 205 -89
82 -196 124 -344 136 -36 3 -87 7 -115 10 -27 2 -79 7 -115 10 -209 17 -431
36 -473 41 -26 3 -74 7 -105 9 -101 8 -186 15 -232 20 -290 30 -477 37 -553
19z"/>
</g>
</svg>
